<?xml version="1.0" encoding="UTF-8" standalone="no"?>
<svg
   version="1.1"
   width="297.0022mm"
   height="210.0072mm"
   viewBox="0.0000 0.0000 297.0022 210.0072"
   id="svg1554"
   sodipodi:docname="bully-brd.svg"
   inkscape:version="1.3.2 (091e20e, 2023-11-25)"
   xmlns:inkscape="http://www.inkscape.org/namespaces/inkscape"
   xmlns:sodipodi="http://sodipodi.sourceforge.net/DTD/sodipodi-0.dtd"
   xmlns="http://www.w3.org/2000/svg"
   xmlns:svg="http://www.w3.org/2000/svg">
  <defs
     id="defs1554" />
  <sodipodi:namedview
     id="namedview1554"
     pagecolor="#ffffff"
     bordercolor="#666666"
     borderopacity="1.0"
     inkscape:showpageshadow="2"
     inkscape:pageopacity="0.0"
     inkscape:pagecheckerboard="0"
     inkscape:deskcolor="#d1d1d1"
     inkscape:document-units="mm"
     inkscape:zoom="0.58774516"
     inkscape:cx="235.64635"
     inkscape:cy="598.04831"
     inkscape:window-width="1792"
     inkscape:window-height="1120"
     inkscape:window-x="0"
     inkscape:window-y="0"
     inkscape:window-maximized="0"
     inkscape:current-layer="svg1554" />
  <title
     id="title1">SVG Image created as bully-brd.svg date 2024/06/09 00:01:56 </title>
  <desc
     id="desc1">Image generated by PCBNEW </desc>
  <g
     style="fill:#000000; fill-opacity:1.0000;stroke:#000000; stroke-opacity:1.0000; stroke-linecap:round; stroke-linejoin:round;"
     transform="translate(0 0) scale(1 1)"
     id="g1" />
  <g
     style="fill:none;  stroke:#000000; stroke-width:0.3000; stroke-opacity:1;  stroke-linecap:round; stroke-linejoin:round;"
     id="g1067">
    <text
       x="178.0022"
       y="180.7572"
       textLength="0.9000"
       font-size="2.0000"
       lengthAdjust="spacingAndGlyphs"
       text-anchor="start"
       opacity="0"
       id="text1065" />
    <g
       class="stroked-text"
       id="g1066">
      <desc
         id="desc1065" />
    </g>
  </g>
  <g
     style="fill:none;  stroke:#000000; stroke-width:0.1500; stroke-opacity:1;  stroke-linecap:round; stroke-linejoin:round;"
     id="g1341">
    <text
       x="178.0022"
       y="174.7572"
       textLength="0.4500"
       font-size="2.0000"
       lengthAdjust="spacingAndGlyphs"
       text-anchor="start"
       opacity="0"
       id="text1339" />
    <g
       class="stroked-text"
       id="g1340">
      <desc
         id="desc1339" />
    </g>
  </g>
  <g
     style="fill:none;  stroke:#000000; stroke-width:0.1500; stroke-opacity:1;  stroke-linecap:round; stroke-linejoin:round;"
     id="g1343">
    <text
       x="178.0022"
       y="171.7572"
       textLength="0.4500"
       font-size="2.0000"
       lengthAdjust="spacingAndGlyphs"
       text-anchor="start"
       opacity="0"
       id="text1341" />
    <g
       class="stroked-text"
       id="g1342">
      <desc
         id="desc1341" />
    </g>
  </g>
  <g
     style="fill:none;  stroke:#000000; stroke-width:0.1500; stroke-opacity:1;  stroke-linecap:round; stroke-linejoin:round;"
     id="g1345">
    <text
       x="178.0022"
       y="168.7572"
       textLength="0.4500"
       font-size="2.0000"
       lengthAdjust="spacingAndGlyphs"
       text-anchor="start"
       opacity="0"
       id="text1343" />
    <g
       class="stroked-text"
       id="g1344">
      <desc
         id="desc1343" />
    </g>
  </g>
  <g
     style="fill:none;stroke:#0000ff;stroke-width:0.1;stroke-opacity:1;stroke-linecap:round;stroke-linejoin:round"
     id="g1354">
    <path
       d="M21.3637 53.9975 L274.5263 53.9975 "
       id="path1347"
       style="stroke:#0000ff;stroke-opacity:1" />
    <path
       d="M274.5387 129.3975 L21.3513 129.3975 "
       id="path1348"
       style="stroke:#0000ff;stroke-opacity:1" />
    <path
       d="M19.8637 127.7975 L19.8637 55.5975 "
       id="path1349"
       style="stroke:#0000ff;stroke-opacity:1" />
    <path
       d="M276.1388 55.5975 L276.1388 127.7975 "
       id="path1350"
       style="stroke:#0000ff;stroke-opacity:1" />
    <path
       d="M276.1388 55.5975 A1.5999 1.5999 0.0 0 0 274.5263 53.9975"
       id="path1351"
       style="stroke:#0000ff;stroke-opacity:1" />
    <path
       d="M274.5387 129.3975 A1.6531 1.6531 0.0 0 0 276.1387 127.7975"
       id="path1352"
       style="stroke:#0000ff;stroke-opacity:1" />
    <path
       d="M19.8637 127.7975 A1.5465 1.5465 0.0 0 0 21.3547 129.3975"
       id="path1353"
       style="stroke:#0000ff;stroke-opacity:1" />
    <path
       d="M21.3637 53.9975 A1.5508 1.5508 0.0 0 0 19.8637 55.5975"
       id="path1354"
       style="stroke:#0000ff;stroke-opacity:1" />
  </g>
  <g
     style="fill:none;stroke:#fa1900;stroke-width:0.15;stroke-opacity:1;stroke-linecap:round;stroke-linejoin:round"
     id="g1554">
    <path
       d="M260.4500 77.7500 L274.5500 77.7500 "
       id="path1355"
       style="stroke:#fa1900;stroke-opacity:1" />
    <path
       d="M260.4500 91.8500 L260.4500 77.7500 "
       id="path1356"
       style="stroke:#fa1900;stroke-opacity:1" />
    <path
       d="M274.5500 77.7500 L274.5500 91.8500 "
       id="path1357"
       style="stroke:#fa1900;stroke-opacity:1" />
    <path
       d="M274.5500 91.8500 L260.4500 91.8500 "
       id="path1358"
       style="stroke:#fa1900;stroke-opacity:1" />
    <path
       d="M188.4500 91.5500 L202.5500 91.5500 "
       id="path1359"
       style="stroke:#fa1900;stroke-opacity:1" />
    <path
       d="M188.4500 105.6500 L188.4500 91.5500 "
       id="path1360"
       style="stroke:#fa1900;stroke-opacity:1" />
    <path
       d="M202.5500 91.5500 L202.5500 105.6500 "
       id="path1361"
       style="stroke:#fa1900;stroke-opacity:1" />
    <path
       d="M202.5500 105.6500 L188.4500 105.6500 "
       id="path1362"
       style="stroke:#fa1900;stroke-opacity:1" />
    <path
       d="M61.8500 91.5500 L75.9500 91.5500 "
       id="path1363"
       style="stroke:#fa1900;stroke-opacity:1" />
    <path
       d="M61.8500 105.6500 L61.8500 91.5500 "
       id="path1364"
       style="stroke:#fa1900;stroke-opacity:1" />
    <path
       d="M75.9500 91.5500 L75.9500 105.6500 "
       id="path1365"
       style="stroke:#fa1900;stroke-opacity:1" />
    <path
       d="M75.9500 105.6500 L61.8500 105.6500 "
       id="path1366"
       style="stroke:#fa1900;stroke-opacity:1" />
    <path
       d="M224.4500 59.7500 L238.5500 59.7500 "
       id="path1367"
       style="stroke:#fa1900;stroke-opacity:1" />
    <path
       d="M224.4500 73.8500 L224.4500 59.7500 "
       id="path1368"
       style="stroke:#fa1900;stroke-opacity:1" />
    <path
       d="M238.5500 59.7500 L238.5500 73.8500 "
       id="path1369"
       style="stroke:#fa1900;stroke-opacity:1" />
    <path
       d="M238.5500 73.8500 L224.4500 73.8500 "
       id="path1370"
       style="stroke:#fa1900;stroke-opacity:1" />
    <path
       d="M179.4500 113.7500 L193.5500 113.7500 "
       id="path1371"
       style="stroke:#fa1900;stroke-opacity:1" />
    <path
       d="M179.4500 127.8500 L179.4500 113.7500 "
       id="path1372"
       style="stroke:#fa1900;stroke-opacity:1" />
    <path
       d="M193.5500 113.7500 L193.5500 127.8500 "
       id="path1373"
       style="stroke:#fa1900;stroke-opacity:1" />
    <path
       d="M193.5500 127.8500 L179.4500 127.8500 "
       id="path1374"
       style="stroke:#fa1900;stroke-opacity:1" />
    <path
       d="M152.4500 59.7500 L166.5500 59.7500 "
       id="path1375"
       style="stroke:#fa1900;stroke-opacity:1" />
    <path
       d="M152.4500 73.8500 L152.4500 59.7500 "
       id="path1376"
       style="stroke:#fa1900;stroke-opacity:1" />
    <path
       d="M166.5500 59.7500 L166.5500 73.8500 "
       id="path1377"
       style="stroke:#fa1900;stroke-opacity:1" />
    <path
       d="M166.5500 73.8500 L152.4500 73.8500 "
       id="path1378"
       style="stroke:#fa1900;stroke-opacity:1" />
    <path
       d="M242.4500 113.7500 L256.5500 113.7500 "
       id="path1379"
       style="stroke:#fa1900;stroke-opacity:1" />
    <path
       d="M242.4500 127.8500 L242.4500 113.7500 "
       id="path1380"
       style="stroke:#fa1900;stroke-opacity:1" />
    <path
       d="M256.5500 113.7500 L256.5500 127.8500 "
       id="path1381"
       style="stroke:#fa1900;stroke-opacity:1" />
    <path
       d="M256.5500 127.8500 L242.4500 127.8500 "
       id="path1382"
       style="stroke:#fa1900;stroke-opacity:1" />
    <path
       d="M88.8500 113.7500 L102.9500 113.7500 "
       id="path1383"
       style="stroke:#fa1900;stroke-opacity:1" />
    <path
       d="M88.8500 127.8500 L88.8500 113.7500 "
       id="path1384"
       style="stroke:#fa1900;stroke-opacity:1" />
    <path
       d="M102.9500 113.7500 L102.9500 127.8500 "
       id="path1385"
       style="stroke:#fa1900;stroke-opacity:1" />
    <path
       d="M102.9500 127.8500 L88.8500 127.8500 "
       id="path1386"
       style="stroke:#fa1900;stroke-opacity:1" />
    <path
       d="M242.4500 77.7500 L256.5500 77.7500 "
       id="path1387"
       style="stroke:#fa1900;stroke-opacity:1" />
    <path
       d="M242.4500 91.8500 L242.4500 77.7500 "
       id="path1388"
       style="stroke:#fa1900;stroke-opacity:1" />
    <path
       d="M256.5500 77.7500 L256.5500 91.8500 "
       id="path1389"
       style="stroke:#fa1900;stroke-opacity:1" />
    <path
       d="M256.5500 91.8500 L242.4500 91.8500 "
       id="path1390"
       style="stroke:#fa1900;stroke-opacity:1" />
    <path
       d="M260.4500 59.7500 L274.5500 59.7500 "
       id="path1391"
       style="stroke:#fa1900;stroke-opacity:1" />
    <path
       d="M260.4500 73.8500 L260.4500 59.7500 "
       id="path1392"
       style="stroke:#fa1900;stroke-opacity:1" />
    <path
       d="M274.5500 59.7500 L274.5500 73.8500 "
       id="path1393"
       style="stroke:#fa1900;stroke-opacity:1" />
    <path
       d="M274.5500 73.8500 L260.4500 73.8500 "
       id="path1394"
       style="stroke:#fa1900;stroke-opacity:1" />
    <path
       d="M242.4500 95.7500 L256.5500 95.7500 "
       id="path1395"
       style="stroke:#fa1900;stroke-opacity:1" />
    <path
       d="M242.4500 109.8500 L242.4500 95.7500 "
       id="path1396"
       style="stroke:#fa1900;stroke-opacity:1" />
    <path
       d="M256.5500 95.7500 L256.5500 109.8500 "
       id="path1397"
       style="stroke:#fa1900;stroke-opacity:1" />
    <path
       d="M256.5500 109.8500 L242.4500 109.8500 "
       id="path1398"
       style="stroke:#fa1900;stroke-opacity:1" />
    <path
       d="M170.4500 93.8000 L184.5500 93.8000 "
       id="path1399"
       style="stroke:#fa1900;stroke-opacity:1" />
    <path
       d="M170.4500 107.9000 L170.4500 93.8000 "
       id="path1400"
       style="stroke:#fa1900;stroke-opacity:1" />
    <path
       d="M184.5500 93.8000 L184.5500 107.9000 "
       id="path1401"
       style="stroke:#fa1900;stroke-opacity:1" />
    <path
       d="M184.5500 107.9000 L170.4500 107.9000 "
       id="path1402"
       style="stroke:#fa1900;stroke-opacity:1" />
    <path
       d="M43.8500 95.7500 L57.9500 95.7500 "
       id="path1403"
       style="stroke:#fa1900;stroke-opacity:1" />
    <path
       d="M43.8500 109.8500 L43.8500 95.7500 "
       id="path1404"
       style="stroke:#fa1900;stroke-opacity:1" />
    <path
       d="M57.9500 95.7500 L57.9500 109.8500 "
       id="path1405"
       style="stroke:#fa1900;stroke-opacity:1" />
    <path
       d="M57.9500 109.8500 L43.8500 109.8500 "
       id="path1406"
       style="stroke:#fa1900;stroke-opacity:1" />
    <path
       d="M61.8500 55.5500 L75.9500 55.5500 "
       id="path1407"
       style="stroke:#fa1900;stroke-opacity:1" />
    <path
       d="M61.8500 69.6500 L61.8500 55.5500 "
       id="path1408"
       style="stroke:#fa1900;stroke-opacity:1" />
    <path
       d="M75.9500 55.5500 L75.9500 69.6500 "
       id="path1409"
       style="stroke:#fa1900;stroke-opacity:1" />
    <path
       d="M75.9500 69.6500 L61.8500 69.6500 "
       id="path1410"
       style="stroke:#fa1900;stroke-opacity:1" />
    <path
       d="M115.8500 95.7500 L129.9500 95.7500 "
       id="path1411"
       style="stroke:#fa1900;stroke-opacity:1" />
    <path
       d="M115.8500 109.8500 L115.8500 95.7500 "
       id="path1412"
       style="stroke:#fa1900;stroke-opacity:1" />
    <path
       d="M129.9500 95.7500 L129.9500 109.8500 "
       id="path1413"
       style="stroke:#fa1900;stroke-opacity:1" />
    <path
       d="M129.9500 109.8500 L115.8500 109.8500 "
       id="path1414"
       style="stroke:#fa1900;stroke-opacity:1" />
    <path
       d="M188.4500 73.5500 L202.5500 73.5500 "
       id="path1415"
       style="stroke:#fa1900;stroke-opacity:1" />
    <path
       d="M188.4500 87.6500 L188.4500 73.5500 "
       id="path1416"
       style="stroke:#fa1900;stroke-opacity:1" />
    <path
       d="M202.5500 73.5500 L202.5500 87.6500 "
       id="path1417"
       style="stroke:#fa1900;stroke-opacity:1" />
    <path
       d="M202.5500 87.6500 L188.4500 87.6500 "
       id="path1418"
       style="stroke:#fa1900;stroke-opacity:1" />
    <path
       d="M97.8500 75.8000 L111.9500 75.8000 "
       id="path1419"
       style="stroke:#fa1900;stroke-opacity:1" />
    <path
       d="M97.8500 89.9000 L97.8500 75.8000 "
       id="path1420"
       style="stroke:#fa1900;stroke-opacity:1" />
    <path
       d="M111.9500 75.8000 L111.9500 89.9000 "
       id="path1421"
       style="stroke:#fa1900;stroke-opacity:1" />
    <path
       d="M111.9500 89.9000 L97.8500 89.9000 "
       id="path1422"
       style="stroke:#fa1900;stroke-opacity:1" />
    <path
       d="M97.8500 93.8000 L111.9500 93.8000 "
       id="path1423"
       style="stroke:#fa1900;stroke-opacity:1" />
    <path
       d="M97.8500 107.9000 L97.8500 93.8000 "
       id="path1424"
       style="stroke:#fa1900;stroke-opacity:1" />
    <path
       d="M111.9500 93.8000 L111.9500 107.9000 "
       id="path1425"
       style="stroke:#fa1900;stroke-opacity:1" />
    <path
       d="M111.9500 107.9000 L97.8500 107.9000 "
       id="path1426"
       style="stroke:#fa1900;stroke-opacity:1" />
    <path
       d="M43.8500 59.7500 L57.9500 59.7500 "
       id="path1427"
       style="stroke:#fa1900;stroke-opacity:1" />
    <path
       d="M43.8500 73.8500 L43.8500 59.7500 "
       id="path1428"
       style="stroke:#fa1900;stroke-opacity:1" />
    <path
       d="M57.9500 59.7500 L57.9500 73.8500 "
       id="path1429"
       style="stroke:#fa1900;stroke-opacity:1" />
    <path
       d="M57.9500 73.8500 L43.8500 73.8500 "
       id="path1430"
       style="stroke:#fa1900;stroke-opacity:1" />
    <path
       d="M206.4500 55.5500 L220.5500 55.5500 "
       id="path1431"
       style="stroke:#fa1900;stroke-opacity:1" />
    <path
       d="M206.4500 69.6500 L206.4500 55.5500 "
       id="path1432"
       style="stroke:#fa1900;stroke-opacity:1" />
    <path
       d="M220.5500 55.5500 L220.5500 69.6500 "
       id="path1433"
       style="stroke:#fa1900;stroke-opacity:1" />
    <path
       d="M220.5500 69.6500 L206.4500 69.6500 "
       id="path1434"
       style="stroke:#fa1900;stroke-opacity:1" />
    <path
       d="M188.4500 55.5500 L202.5500 55.5500 "
       id="path1435"
       style="stroke:#fa1900;stroke-opacity:1" />
    <path
       d="M188.4500 69.6500 L188.4500 55.5500 "
       id="path1436"
       style="stroke:#fa1900;stroke-opacity:1" />
    <path
       d="M202.5500 55.5500 L202.5500 69.6500 "
       id="path1437"
       style="stroke:#fa1900;stroke-opacity:1" />
    <path
       d="M202.5500 69.6500 L188.4500 69.6500 "
       id="path1438"
       style="stroke:#fa1900;stroke-opacity:1" />
    <path
       d="M79.8500 73.5500 L93.9500 73.5500 "
       id="path1439"
       style="stroke:#fa1900;stroke-opacity:1" />
    <path
       d="M79.8500 87.6500 L79.8500 73.5500 "
       id="path1440"
       style="stroke:#fa1900;stroke-opacity:1" />
    <path
       d="M93.9500 73.5500 L93.9500 87.6500 "
       id="path1441"
       style="stroke:#fa1900;stroke-opacity:1" />
    <path
       d="M93.9500 87.6500 L79.8500 87.6500 "
       id="path1442"
       style="stroke:#fa1900;stroke-opacity:1" />
    <path
       d="M52.8500 113.7500 L66.9500 113.7500 "
       id="path1443"
       style="stroke:#fa1900;stroke-opacity:1" />
    <path
       d="M52.8500 127.8500 L52.8500 113.7500 "
       id="path1444"
       style="stroke:#fa1900;stroke-opacity:1" />
    <path
       d="M66.9500 113.7500 L66.9500 127.8500 "
       id="path1445"
       style="stroke:#fa1900;stroke-opacity:1" />
    <path
       d="M66.9500 127.8500 L52.8500 127.8500 "
       id="path1446"
       style="stroke:#fa1900;stroke-opacity:1" />
    <path
       d="M79.8500 55.5500 L93.9500 55.5500 "
       id="path1447"
       style="stroke:#fa1900;stroke-opacity:1" />
    <path
       d="M79.8500 69.6500 L79.8500 55.5500 "
       id="path1448"
       style="stroke:#fa1900;stroke-opacity:1" />
    <path
       d="M93.9500 55.5500 L93.9500 69.6500 "
       id="path1449"
       style="stroke:#fa1900;stroke-opacity:1" />
    <path
       d="M93.9500 69.6500 L79.8500 69.6500 "
       id="path1450"
       style="stroke:#fa1900;stroke-opacity:1" />
    <path
       d="M21.3500 77.7500 L35.4500 77.7500 "
       id="path1451"
       style="stroke:#fa1900;stroke-opacity:1" />
    <path
       d="M21.3500 91.8500 L21.3500 77.7500 "
       id="path1452"
       style="stroke:#fa1900;stroke-opacity:1" />
    <path
       d="M35.4500 77.7500 L35.4500 91.8500 "
       id="path1453"
       style="stroke:#fa1900;stroke-opacity:1" />
    <path
       d="M35.4500 91.8500 L21.3500 91.8500 "
       id="path1454"
       style="stroke:#fa1900;stroke-opacity:1" />
    <path
       d="M115.8500 77.7500 L129.9500 77.7500 "
       id="path1455"
       style="stroke:#fa1900;stroke-opacity:1" />
    <path
       d="M115.8500 91.8500 L115.8500 77.7500 "
       id="path1456"
       style="stroke:#fa1900;stroke-opacity:1" />
    <path
       d="M129.9500 77.7500 L129.9500 91.8500 "
       id="path1457"
       style="stroke:#fa1900;stroke-opacity:1" />
    <path
       d="M129.9500 91.8500 L115.8500 91.8500 "
       id="path1458"
       style="stroke:#fa1900;stroke-opacity:1" />
    <path
       d="M152.4500 113.7500 L166.5500 113.7500 "
       id="path1459"
       style="stroke:#fa1900;stroke-opacity:1" />
    <path
       d="M152.4500 127.8500 L152.4500 113.7500 "
       id="path1460"
       style="stroke:#fa1900;stroke-opacity:1" />
    <path
       d="M166.5500 113.7500 L166.5500 127.8500 "
       id="path1461"
       style="stroke:#fa1900;stroke-opacity:1" />
    <path
       d="M166.5500 127.8500 L152.4500 127.8500 "
       id="path1462"
       style="stroke:#fa1900;stroke-opacity:1" />
    <path
       d="M260.4500 95.7500 L274.5500 95.7500 "
       id="path1463"
       style="stroke:#fa1900;stroke-opacity:1" />
    <path
       d="M260.4500 109.8500 L260.4500 95.7500 "
       id="path1464"
       style="stroke:#fa1900;stroke-opacity:1" />
    <path
       d="M274.5500 95.7500 L274.5500 109.8500 "
       id="path1465"
       style="stroke:#fa1900;stroke-opacity:1" />
    <path
       d="M274.5500 109.8500 L260.4500 109.8500 "
       id="path1466"
       style="stroke:#fa1900;stroke-opacity:1" />
    <path
       d="M224.4500 77.7500 L238.5500 77.7500 "
       id="path1467"
       style="stroke:#fa1900;stroke-opacity:1" />
    <path
       d="M224.4500 91.8500 L224.4500 77.7500 "
       id="path1468"
       style="stroke:#fa1900;stroke-opacity:1" />
    <path
       d="M238.5500 77.7500 L238.5500 91.8500 "
       id="path1469"
       style="stroke:#fa1900;stroke-opacity:1" />
    <path
       d="M238.5500 91.8500 L224.4500 91.8500 "
       id="path1470"
       style="stroke:#fa1900;stroke-opacity:1" />
    <path
       d="M43.8500 77.7500 L57.9500 77.7500 "
       id="path1471"
       style="stroke:#fa1900;stroke-opacity:1" />
    <path
       d="M43.8500 91.8500 L43.8500 77.7500 "
       id="path1472"
       style="stroke:#fa1900;stroke-opacity:1" />
    <path
       d="M57.9500 77.7500 L57.9500 91.8500 "
       id="path1473"
       style="stroke:#fa1900;stroke-opacity:1" />
    <path
       d="M57.9500 91.8500 L43.8500 91.8500 "
       id="path1474"
       style="stroke:#fa1900;stroke-opacity:1" />
    <path
       d="M206.4500 73.5500 L220.5500 73.5500 "
       id="path1475"
       style="stroke:#fa1900;stroke-opacity:1" />
    <path
       d="M206.4500 87.6500 L206.4500 73.5500 "
       id="path1476"
       style="stroke:#fa1900;stroke-opacity:1" />
    <path
       d="M220.5500 73.5500 L220.5500 87.6500 "
       id="path1477"
       style="stroke:#fa1900;stroke-opacity:1" />
    <path
       d="M220.5500 87.6500 L206.4500 87.6500 "
       id="path1478"
       style="stroke:#fa1900;stroke-opacity:1" />
    <path
       d="M79.8500 91.5500 L93.9500 91.5500 "
       id="path1479"
       style="stroke:#fa1900;stroke-opacity:1" />
    <path
       d="M79.8500 105.6500 L79.8500 91.5500 "
       id="path1480"
       style="stroke:#fa1900;stroke-opacity:1" />
    <path
       d="M93.9500 91.5500 L93.9500 105.6500 "
       id="path1481"
       style="stroke:#fa1900;stroke-opacity:1" />
    <path
       d="M93.9500 105.6500 L79.8500 105.6500 "
       id="path1482"
       style="stroke:#fa1900;stroke-opacity:1" />
    <path
       d="M197.4500 113.7500 L211.5500 113.7500 "
       id="path1483"
       style="stroke:#fa1900;stroke-opacity:1" />
    <path
       d="M197.4500 127.8500 L197.4500 113.7500 "
       id="path1484"
       style="stroke:#fa1900;stroke-opacity:1" />
    <path
       d="M211.5500 113.7500 L211.5500 127.8500 "
       id="path1485"
       style="stroke:#fa1900;stroke-opacity:1" />
    <path
       d="M211.5500 127.8500 L197.4500 127.8500 "
       id="path1486"
       style="stroke:#fa1900;stroke-opacity:1" />
    <path
       d="M115.8500 59.7500 L129.9500 59.7500 "
       id="path1487"
       style="stroke:#fa1900;stroke-opacity:1" />
    <path
       d="M115.8500 73.8500 L115.8500 59.7500 "
       id="path1488"
       style="stroke:#fa1900;stroke-opacity:1" />
    <path
       d="M129.9500 59.7500 L129.9500 73.8500 "
       id="path1489"
       style="stroke:#fa1900;stroke-opacity:1" />
    <path
       d="M129.9500 73.8500 L115.8500 73.8500 "
       id="path1490"
       style="stroke:#fa1900;stroke-opacity:1" />
    <path
       d="M70.8500 113.7500 L84.9500 113.7500 "
       id="path1491"
       style="stroke:#fa1900;stroke-opacity:1" />
    <path
       d="M70.8500 127.8500 L70.8500 113.7500 "
       id="path1492"
       style="stroke:#fa1900;stroke-opacity:1" />
    <path
       d="M84.9500 113.7500 L84.9500 127.8500 "
       id="path1493"
       style="stroke:#fa1900;stroke-opacity:1" />
    <path
       d="M84.9500 127.8500 L70.8500 127.8500 "
       id="path1494"
       style="stroke:#fa1900;stroke-opacity:1" />
    <path
       d="M260.4500 113.7500 L274.5500 113.7500 "
       id="path1495"
       style="stroke:#fa1900;stroke-opacity:1" />
    <path
       d="M260.4500 127.8500 L260.4500 113.7500 "
       id="path1496"
       style="stroke:#fa1900;stroke-opacity:1" />
    <path
       d="M274.5500 113.7500 L274.5500 127.8500 "
       id="path1497"
       style="stroke:#fa1900;stroke-opacity:1" />
    <path
       d="M274.5500 127.8500 L260.4500 127.8500 "
       id="path1498"
       style="stroke:#fa1900;stroke-opacity:1" />
    <path
       d="M152.4500 95.7500 L166.5500 95.7500 "
       id="path1499"
       style="stroke:#fa1900;stroke-opacity:1" />
    <path
       d="M152.4500 109.8500 L152.4500 95.7500 "
       id="path1500"
       style="stroke:#fa1900;stroke-opacity:1" />
    <path
       d="M166.5500 95.7500 L166.5500 109.8500 "
       id="path1501"
       style="stroke:#fa1900;stroke-opacity:1" />
    <path
       d="M166.5500 109.8500 L152.4500 109.8500 "
       id="path1502"
       style="stroke:#fa1900;stroke-opacity:1" />
    <path
       d="M242.4500 59.7500 L256.5500 59.7500 "
       id="path1503"
       style="stroke:#fa1900;stroke-opacity:1" />
    <path
       d="M242.4500 73.8500 L242.4500 59.7500 "
       id="path1504"
       style="stroke:#fa1900;stroke-opacity:1" />
    <path
       d="M256.5500 59.7500 L256.5500 73.8500 "
       id="path1505"
       style="stroke:#fa1900;stroke-opacity:1" />
    <path
       d="M256.5500 73.8500 L242.4500 73.8500 "
       id="path1506"
       style="stroke:#fa1900;stroke-opacity:1" />
    <path
       d="M224.4500 95.7500 L238.5500 95.7500 "
       id="path1507"
       style="stroke:#fa1900;stroke-opacity:1" />
    <path
       d="M224.4500 109.8500 L224.4500 95.7500 "
       id="path1508"
       style="stroke:#fa1900;stroke-opacity:1" />
    <path
       d="M238.5500 95.7500 L238.5500 109.8500 "
       id="path1509"
       style="stroke:#fa1900;stroke-opacity:1" />
    <path
       d="M238.5500 109.8500 L224.4500 109.8500 "
       id="path1510"
       style="stroke:#fa1900;stroke-opacity:1" />
    <path
       d="M21.3500 113.7500 L35.4500 113.7500 "
       id="path1511"
       style="stroke:#fa1900;stroke-opacity:1" />
    <path
       d="M21.3500 127.8500 L21.3500 113.7500 "
       id="path1512"
       style="stroke:#fa1900;stroke-opacity:1" />
    <path
       d="M35.4500 113.7500 L35.4500 127.8500 "
       id="path1513"
       style="stroke:#fa1900;stroke-opacity:1" />
    <path
       d="M35.4500 127.8500 L21.3500 127.8500 "
       id="path1514"
       style="stroke:#fa1900;stroke-opacity:1" />
    <path
       d="M170.4500 75.8000 L184.5500 75.8000 "
       id="path1515"
       style="stroke:#fa1900;stroke-opacity:1" />
    <path
       d="M170.4500 89.9000 L170.4500 75.8000 "
       id="path1516"
       style="stroke:#fa1900;stroke-opacity:1" />
    <path
       d="M184.5500 75.8000 L184.5500 89.9000 "
       id="path1517"
       style="stroke:#fa1900;stroke-opacity:1" />
    <path
       d="M184.5500 89.9000 L170.4500 89.9000 "
       id="path1518"
       style="stroke:#fa1900;stroke-opacity:1" />
    <path
       d="M152.4500 77.7500 L166.5500 77.7500 "
       id="path1519"
       style="stroke:#fa1900;stroke-opacity:1" />
    <path
       d="M152.4500 91.8500 L152.4500 77.7500 "
       id="path1520"
       style="stroke:#fa1900;stroke-opacity:1" />
    <path
       d="M166.5500 77.7500 L166.5500 91.8500 "
       id="path1521"
       style="stroke:#fa1900;stroke-opacity:1" />
    <path
       d="M166.5500 91.8500 L152.4500 91.8500 "
       id="path1522"
       style="stroke:#fa1900;stroke-opacity:1" />
    <path
       d="M97.8500 57.8000 L111.9500 57.8000 "
       id="path1523"
       style="stroke:#fa1900;stroke-opacity:1" />
    <path
       d="M97.8500 71.9000 L97.8500 57.8000 "
       id="path1524"
       style="stroke:#fa1900;stroke-opacity:1" />
    <path
       d="M111.9500 57.8000 L111.9500 71.9000 "
       id="path1525"
       style="stroke:#fa1900;stroke-opacity:1" />
    <path
       d="M111.9500 71.9000 L97.8500 71.9000 "
       id="path1526"
       style="stroke:#fa1900;stroke-opacity:1" />
    <path
       d="M215.4500 113.7500 L229.5500 113.7500 "
       id="path1527"
       style="stroke:#fa1900;stroke-opacity:1" />
    <path
       d="M215.4500 127.8500 L215.4500 113.7500 "
       id="path1528"
       style="stroke:#fa1900;stroke-opacity:1" />
    <path
       d="M229.5500 113.7500 L229.5500 127.8500 "
       id="path1529"
       style="stroke:#fa1900;stroke-opacity:1" />
    <path
       d="M229.5500 127.8500 L215.4500 127.8500 "
       id="path1530"
       style="stroke:#fa1900;stroke-opacity:1" />
    <path
       d="M61.8500 73.5500 L75.9500 73.5500 "
       id="path1531"
       style="stroke:#fa1900;stroke-opacity:1" />
    <path
       d="M61.8500 87.6500 L61.8500 73.5500 "
       id="path1532"
       style="stroke:#fa1900;stroke-opacity:1" />
    <path
       d="M75.9500 73.5500 L75.9500 87.6500 "
       id="path1533"
       style="stroke:#fa1900;stroke-opacity:1" />
    <path
       d="M75.9500 87.6500 L61.8500 87.6500 "
       id="path1534"
       style="stroke:#fa1900;stroke-opacity:1" />
    <path
       d="M170.4500 57.8000 L184.5500 57.8000 "
       id="path1535"
       style="stroke:#fa1900;stroke-opacity:1" />
    <path
       d="M170.4500 71.9000 L170.4500 57.8000 "
       id="path1536"
       style="stroke:#fa1900;stroke-opacity:1" />
    <path
       d="M184.5500 57.8000 L184.5500 71.9000 "
       id="path1537"
       style="stroke:#fa1900;stroke-opacity:1" />
    <path
       d="M184.5500 71.9000 L170.4500 71.9000 "
       id="path1538"
       style="stroke:#fa1900;stroke-opacity:1" />
    <path
       d="M21.3500 95.7500 L35.4500 95.7500 "
       id="path1539"
       style="stroke:#fa1900;stroke-opacity:1" />
    <path
       d="M21.3500 109.8500 L21.3500 95.7500 "
       id="path1540"
       style="stroke:#fa1900;stroke-opacity:1" />
    <path
       d="M35.4500 95.7500 L35.4500 109.8500 "
       id="path1541"
       style="stroke:#fa1900;stroke-opacity:1" />
    <path
       d="M35.4500 109.8500 L21.3500 109.8500 "
       id="path1542"
       style="stroke:#fa1900;stroke-opacity:1" />
    <path
       d="M115.8500 113.7500 L129.9500 113.7500 "
       id="path1543"
       style="stroke:#fa1900;stroke-opacity:1" />
    <path
       d="M115.8500 127.8500 L115.8500 113.7500 "
       id="path1544"
       style="stroke:#fa1900;stroke-opacity:1" />
    <path
       d="M129.9500 113.7500 L129.9500 127.8500 "
       id="path1545"
       style="stroke:#fa1900;stroke-opacity:1" />
    <path
       d="M129.9500 127.8500 L115.8500 127.8500 "
       id="path1546"
       style="stroke:#fa1900;stroke-opacity:1" />
    <path
       d="M21.3500 59.7500 L35.4500 59.7500 "
       id="path1547"
       style="stroke:#fa1900;stroke-opacity:1" />
    <path
       d="M21.3500 73.8500 L21.3500 59.7500 "
       id="path1548"
       style="stroke:#fa1900;stroke-opacity:1" />
    <path
       d="M35.4500 59.7500 L35.4500 73.8500 "
       id="path1549"
       style="stroke:#fa1900;stroke-opacity:1" />
    <path
       d="M35.4500 73.8500 L21.3500 73.8500 "
       id="path1550"
       style="stroke:#fa1900;stroke-opacity:1" />
    <path
       d="M206.4500 91.5500 L220.5500 91.5500 "
       id="path1551"
       style="stroke:#fa1900;stroke-opacity:1" />
    <path
       d="M206.4500 105.6500 L206.4500 91.5500 "
       id="path1552"
       style="stroke:#fa1900;stroke-opacity:1" />
    <path
       d="M220.5500 91.5500 L220.5500 105.6500 "
       id="path1553"
       style="stroke:#fa1900;stroke-opacity:1" />
    <path
       d="M220.5500 105.6500 L206.4500 105.6500 "
       id="path1554"
       style="stroke:#fa1900;stroke-opacity:1" />
  </g>
</svg>
